<svg xmlns="http://www.w3.org/2000/svg" viewBox="0 0 920 300" role="img" aria-labelledby="title">
  <title id="title">Итерационный процесс</title>
  <rect width="920" height="300" rx="22" fill="#0b1728"/>
  <g fill="none" stroke="#203b5d" stroke-width="2">
    <path d="M70 235C180 70 308 280 430 126S684 55 842 210"/>
    <path d="M70 65C216 212 318 32 490 170s245 72 352-86"/>
  </g>
  <g font-family="Consolas, monospace" font-weight="700">
    <circle cx="102" cy="218" r="18" fill="#67e8f9"/>
    <text x="92" y="257" fill="#f3f8ff" font-size="22">x0</text>
    <circle cx="258" cy="126" r="18" fill="#8be9ff"/>
    <text x="248" y="88" fill="#f3f8ff" font-size="22">x1</text>
    <circle cx="424" cy="142" r="18" fill="#a7f3d0"/>
    <text x="414" y="184" fill="#f3f8ff" font-size="22">x2</text>
    <circle cx="608" cy="96" r="18" fill="#f6c65b"/>
    <text x="598" y="58" fill="#f3f8ff" font-size="22">x3</text>
    <circle cx="788" cy="188" r="24" fill="#ffffff"/>
    <text x="763" y="242" fill="#f6c65b" font-size="25">x*</text>
  </g>
  <path d="M120 211c52-30 77-61 119-76" fill="none" stroke="#67e8f9" stroke-width="5" stroke-linecap="round" stroke-dasharray="2 14"/>
  <path d="M280 128c44 16 85 19 125 15" fill="none" stroke="#8be9ff" stroke-width="5" stroke-linecap="round" stroke-dasharray="2 14"/>
  <path d="M446 137c55-18 94-31 143-39" fill="none" stroke="#a7f3d0" stroke-width="5" stroke-linecap="round" stroke-dasharray="2 14"/>
  <path d="M632 100c61 19 95 52 134 77" fill="none" stroke="#f6c65b" stroke-width="5" stroke-linecap="round" stroke-dasharray="2 14"/>
</svg>
