<svg xmlns="http://www.w3.org/2000/svg" viewBox="0 0 820 560" role="img" aria-labelledby="title">
  <title id="title">Матрицы и вычисления</title>
  <defs>
    <linearGradient id="g" x1="0" y1="0" x2="1" y2="1">
      <stop offset="0" stop-color="#67e8f9"/>
      <stop offset="1" stop-color="#f6c65b"/>
    </linearGradient>
    <filter id="s" x="-20%" y="-20%" width="140%" height="140%">
      <feDropShadow dx="0" dy="18" stdDeviation="22" flood-color="#000" flood-opacity=".35"/>
    </filter>
  </defs>
  <rect width="820" height="560" rx="24" fill="#0b1728"/>
  <g opacity=".34" stroke="#8ccff0" stroke-width="1">
    <path d="M80 70h660M80 130h660M80 190h660M80 250h660M80 310h660M80 370h660M80 430h660M80 490h660"/>
    <path d="M110 42v470M190 42v470M270 42v470M350 42v470M430 42v470M510 42v470M590 42v470M670 42v470"/>
  </g>
  <g filter="url(#s)">
    <rect x="130" y="94" width="560" height="372" rx="18" fill="#10243d" stroke="#67e8f9" stroke-opacity=".45"/>
    <rect x="166" y="130" width="214" height="300" rx="10" fill="#07111f"/>
    <rect x="440" y="130" width="214" height="300" rx="10" fill="#07111f"/>
  </g>
  <g font-family="Consolas, monospace" font-size="34" font-weight="700">
    <text x="190" y="190" fill="#f3f8ff">4</text>
    <text x="270" y="190" fill="#67e8f9">1</text>
    <text x="190" y="270" fill="#f6c65b">2</text>
    <text x="270" y="270" fill="#f3f8ff">3</text>
    <text x="472" y="190" fill="#f3f8ff">9</text>
    <text x="472" y="270" fill="#67e8f9">13</text>
    <text x="522" y="368" fill="#f6c65b">x</text>
  </g>
  <path d="M384 246l34 34-34 34" fill="none" stroke="url(#g)" stroke-width="9" stroke-linecap="round" stroke-linejoin="round"/>
  <circle cx="640" cy="112" r="38" fill="#67e8f9" opacity=".16"/>
  <circle cx="188" cy="450" r="54" fill="#f6c65b" opacity=".13"/>
</svg>
